PathFileType	4	(X/Y/Z)	/Users/mathieubourgeois/Desktop/Analyse/Traitement/Sujet_03/Data/Transformed_Sujet_03_velo_60.trc
DataRate	CameraRate	NumFrames	NumMarkers	Units	OrigDataRate	OrigDataStartFrame	OrigNumFrames
120.000000	120.000000	4	36	mm	120.000000	231	1854
Frame#	Time	RFHD			LFHD			RBHD			LBHD			C7			CLAV			RSHO			LSHO			STRN			T10			RBWT			LBWT			RFWT			LFWT			RKNI			LKNI			RKNE			LKNE			LANI			RANI			LANE			RANE			LTOE			RTOE			LHEE			RHEE			RHUM			LHUM			RRAD			LRAD			RWRA			RWRB			LWRA			LWRB			LCAR			RCAR			
		X1	Y1	Z1	X2	Y2	Z2	X3	Y3	Z3	X4	Y4	Z4	X5	Y5	Z5	X6	Y6	Z6	X7	Y7	Z7	X8	Y8	Z8	X9	Y9	Z9	X10	Y10	Z10	X11	Y11	Z11	X12	Y12	Z12	X13	Y13	Z13	X14	Y14	Z14	X15	Y15	Z15	X16	Y16	Z16	X17	Y17	Z17	X18	Y18	Z18	X19	Y19	Z19	X20	Y20	Z20	X21	Y21	Z21	X22	Y22	Z22	X23	Y23	Z23	X24	Y24	Z24	X25	Y25	Z25	X26	Y26	Z26	X27	Y27	Z27	X28	Y28	Z28	X29	Y29	Z29	X30	Y30	Z30	X31	Y31	Z31	X32	Y32	Z32	X33	Y33	Z33	X34	Y34	Z34	X35	Y35	Z35	X36	Y36	Z36	

232	1.925	149.6248168945312	1547.572021484375	109.7223510742187	128.7202758789062	1546.755737304688	-42.42734909057625	49.38020706176756	1633.251953125	126.8291015624999	22.59479522705078	1649.877197265625	-19.57557487487803	-114.8606414794922	1562.505249023438	52.4011116027831	-78.2354736328125	1408.810791015625	49.21931457519522	-55.96925735473636	1481.90771484375	229.3682708740234	-83.27741241455077	1505.131713867188	-140.0567169189454	-173.4269561767578	1270.05224609375	46.09152984619131	-333.7315063476562	1458.969970703125	52.86025238037096	-523.5354614257812	1259.43798828125	122.2216339111327	-527.5194091796875	1258.414916992188	-1.194059133529805	-370.0150451660156	1195.903076171875	178.2185058593749	-376.6486511230469	1182.345092773438	-64.85266876220714	-31.31784248352052	877.3724975585938	123.7351608276367	-151.5673522949219	720.31103515625	-65.27699279785162	-47.99913406372073	919.3580322265625	236.5325775146484	-154.6190795898437	766.621337890625	-174.5102996826173	-401.1644287109375	437.1030578613281	-53.22569656372078	-143.1807250976563	523.3739624023438	124.2422943115234	-427.6194763183594	420.7940673828125	-140.4898071289063	-167.9096069335938	505.2101440429688	213.2225189208984	-306.0903930664062	253.7796020507812	-84.60195159912115	13.97265243530272	399.08056640625	149.3204956054687	-495.3165588378906	441.5476379394531	-94.97544860839852	-241.4053649902344	488.2084350585938	168.1295471191406	29.74316215515134	1191.612060546875	224.037857055664	6.385031700134294	1197.871704101562	-136.6624145507813	81.72782897949216	1214.294555664062	281.5670776367187	54.45558929443362	1229.67578125	-195.7007598876954	292.6873168945312	1049.505249023438	208.9614868164062	268.9310607910156	1035.559204101562	286.7344360351562	247.0478515625	1059.872680664062	-126.1655502319336	220.9318084716797	1044.484741210938	-200.6304931640625	318.6709899902344	1032.90380859375	-223.9730682373047	368.9240417480468	1012.345275878906	304.3391418457031	
233	1.933333333333333	149.6779174804688	1547.467407226562	109.4473495483398	128.7553253173828	1546.674072265625	-42.69578170776375	49.45926666259764	1633.177124023438	126.5789184570312	22.65541076660157	1649.815795898438	-19.83386611938486	-114.8240814208984	1562.472900390625	52.09920501708974	-78.19281768798828	1408.789672851562	48.91880798339835	-55.93829345703128	1481.851196289062	229.0713806152343	-83.27024078369139	1505.029418945312	-140.4122772216798	-173.3307647705078	1270.038208007812	45.71538925170888	-333.7011108398438	1458.958862304688	52.67985916137682	-523.4186401367188	1259.26123046875	122.2856292724608	-527.4750366210938	1258.3720703125	-1.145848274231099	-369.919677734375	1195.621215820312	178.1871032714842	-376.5077819824219	1182.48681640625	-64.81344604492199	-34.59653091430665	869.2850952148438	123.4271621704101	-147.5148162841797	724.5560913085938	-66.45586395263678	-50.819938659668	911.5309448242188	236.6122283935546	-150.7682952880859	770.6755981445312	-175.7420043945313	-402.5499267578125	446.4795837402344	-52.54397201538094	-141.1641082763672	514.1220092773438	124.0476989746093	-429.2422180175781	430.139404296875	-140.2554931640626	-165.5579223632813	495.2634887695312	213.1779174804687	-309.2540588378906	262.3312072753906	-84.41637420654303	17.21910476684569	390.3372497558594	149.0420227050781	-496.8028869628906	451.7354736328125	-94.68723297119149	-238.7447052001953	477.6435241699219	168.0256347656249	29.77180290222165	1191.534423828125	223.8436889648437	6.42807579040529	1197.78466796875	-136.8504333496095	81.74762725830075	1214.28466796875	281.3442993164062	54.46661758422854	1229.576904296875	-195.9166107177735	292.7598266601562	1049.455322265625	208.9647369384765	268.9453735351562	1035.548461914062	286.7169189453125	247.09130859375	1059.876953125	-126.1813354492188	221.0032348632813	1044.445922851562	-200.6717071533203	318.7205810546875	1032.857543945312	-223.9635162353516	368.9418945312499	1012.334899902344	304.3743286132812	
234	1.941666666666667	149.7516326904297	1547.388427734375	109.1693115234374	128.8480072021484	1546.628662109375	-42.96474456787117	49.56690216064452	1633.121948242188	126.2892990112304	22.74798393249512	1649.781860351562	-20.08229255676279	-114.7303161621094	1562.445556640625	51.79505157470692	-78.12220001220703	1408.750854492188	48.58956527709952	-55.86172485351565	1481.813110351562	228.7278594970702	-83.23734283447264	1504.97802734375	-140.8161010742188	-173.3423919677734	1270.048828125	45.39929962158193	-333.6171569824219	1458.942504882812	52.4941368103026	-523.2572631835938	1259.104858398438	122.3759613037108	-527.3984985351562	1258.349365234375	-1.084623217582844	-369.8168640136719	1195.406616210938	178.1961364746092	-376.3761291503906	1182.601684570312	-64.76029205322277	-34.61128234863283	862.7238159179688	124.3597183227538	-143.5043792724609	729.0362548828125	-67.61514282226568	-53.84295654296878	903.4987182617188	236.7239685058593	-146.9280548095703	774.8739624023438	-176.8806915283204	-402.8736877441406	455.9551696777344	-53.75307464599617	-139.4870300292969	504.2903137207031	123.9462585449218	-431.12939453125	439.5202941894531	-139.4012603759766	-163.55029296875	485.2198486328125	213.0050659179687	-311.98828125	271.1095886230469	-84.24960327148443	20.02542114257811	381.3528442382812	148.710952758789	-498.2510375976562	461.640625	-95.18112945556649	-236.4619598388672	466.8419189453125	167.3277587890624	29.850959777832	1191.509033203125	223.5971221923827	6.454289436340349	1197.7060546875	-137.0655975341798	81.78303527832028	1214.244262695312	281.0826110839843	54.50261306762697	1229.480102539062	-196.1480407714845	292.8216247558594	1049.38232421875	208.9695281982422	268.9632263183593	1035.532592773438	286.7182006835938	247.1497955322266	1059.879638671875	-126.1958770751954	221.0745086669922	1044.367919921875	-200.6612854003907	318.80615234375	1032.824584960938	-223.9330291748047	368.9804992675781	1012.293212890625	304.4177856445312	
235	1.95	149.8549346923828	1547.33935546875	108.9103775024413	128.9776458740234	1546.591186523438	-43.24455642700203	49.70520401000975	1633.080810546875	125.9962005615233	22.8889274597168	1649.76513671875	-20.36192321777353	-114.6092071533203	1562.434936523438	51.43970870971669	-78.03277587890625	1408.734375	48.18422317504874	-55.75325012207034	1481.800415039062	228.3356628417968	-83.15353393554686	1504.932861328125	-141.1863861083985	-173.331298828125	1270.080932617188	45.09516906738271	-333.4926452636719	1458.936157226562	52.2779502868651	-523.0452880859375	1258.98779296875	122.4742965698241	-527.2933349609375	1258.349853515625	-0.9863467812539564	-369.690673828125	1195.22705078125	178.2145080566405	-376.2185668945312	1182.734619140625	-64.71348571777355	-36.29251098632814	852.5699462890625	124.0732879638671	-139.5171966552734	733.66357421875	-68.74509429931646	-57.19177246093753	895.3720703125	236.8025665283203	-143.0375518798828	779.2611083984375	-178.0128479003907	-403.2891235351562	465.2014770507812	-53.92303848266609	-137.8879699707032	493.9521789550781	123.7455749511718	-432.0814208984375	449.0625305175781	-139.2344970703126	-161.9723663330078	475.1719665527344	212.8847503662109	-314.1054382324219	280.1339416503906	-84.06625366210943	22.31005287170408	372.1980895996094	148.4225006103515	-498.6923217773438	472.6477355957031	-94.89547729492196	-234.6640167236328	456.2832946777344	167.1983337402343	29.93912887573239	1191.510986328125	223.347427368164	6.489518642425554	1197.651000976562	-137.2809295654298	81.81649780273435	1214.229736328125	280.8737487792968	54.55301284790041	1229.402954101562	-196.3823547363282	292.9096374511719	1049.296997070312	208.99609375	268.9939880371093	1035.508178710938	286.7292785644531	247.1974182128907	1059.885009765625	-126.1907958984375	221.153564453125	1044.314208984375	-200.6527099609375	318.8593444824219	1032.773315429688	-223.9043273925782	369.0296325683593	1012.252258300781	304.4769287109375	
